{"title":"Fifty.Dead.Men.Walking.2008.DvDRiP.XViD.Optional MultiSub.Zen_B","uid":5773702,"size":1490744384,"categoryP":"video","categoryS":"movies","magnet":"?xt=urn:btih:982fbee89200f58deebe84c610257cb1ef646df3&amp;dn=+Fifty.Dead.Men.Walking.2008.DvDRiP.XViD.Optional+MultiSub.Zen_B&amp;tr=udp%3A%2F%2Ftracker.openbittorrent.com%3A80&amp;tr=udp%3A%2F%2Fopen.demonii.com%3A1337&amp;tr=udp%3A%2F%2Ftracker.coppersurfer.tk%3A6969&amp;tr=udp%3A%2F%2Fexodus.desync.com%3A6969","seeders":0,"leechers":0,"uploader":"Zen_Bud","files":-1,"time":1282202516,"description":"\n     Fifty.Dead.Men.Walking.2008.DvDRiP.XViD.Optional MultiSub.Zen_Bud.avi\n\nFormat                           : AVI\nFile size                        : 1.37 GiB\nDuration                         : 1h 57mn\nOverall bit rate                 : 1 671 Kbps\n\nVideo\n\nFormat                           : MPEG-4 Visual\nCodec ID/Hint                    : XviD\nDuration                         : 1h 57mn\nBit rate                         : 1 212 Kbps\nWidth                            : 720 pixels\nHeight                           : 496 pixels\nDisplay aspect ratio             : 2.065\nStream size                      : 1 018 MiB (73%)\nWriting library                  : XviD 1.1.2 (UTC 2006-11-01)\n\nAudio\n\nFormat                           : AC-3\nDuration                         : 1h 57mn\nBit rate                         : 448 Kbps\nChannel(s)                       : 6 channels\nChannel positions                : Front: L C R, Side: L R, LFE\nSampling rate                    : 48.0 KHz\nStream size                      : 376 MiB (27%)\n\n\n********** Text: English Danish Finnish Norwegian Swedish **********\n","torrent":{"xt":"urn:btih:982fbee89200f58deebe84c610257cb1ef646df3","amp;dn":"+Fifty.Dead.Men.Walking.2008.DvDRiP.XViD.Optional+MultiSub.Zen_B","amp;tr":["udp%3A%2F%2Ftracker.openbittorrent.com%3A80","udp%3A%2F%2Fopen.demonii.com%3A1337","udp%3A%2F%2Ftracker.coppersurfer.tk%3A6969","udp%3A%2F%2Fexodus.desync.com%3A6969"],"infoHash":"982fbee89200f58deebe84c610257cb1ef646df3","infoHashBuffer":{"type":"Buffer","data":[152,47,190,232,146,0,245,141,238,190,132,198,16,37,124,177,239,100,109,243]},"announce":[],"urlList":[]}}